<?xml version="1.0" standalone="no"?>
<!DOCTYPE svg PUBLIC "-//W3C//DTD SVG 20010904//EN"
 "http://www.w3.org/TR/2001/REC-SVG-20010904/DTD/svg10.dtd">
<svg version="1.0" xmlns="http://www.w3.org/2000/svg"
 width="79.000000pt" height="80.000000pt" viewBox="0 0 79.000000 80.000000"
 preserveAspectRatio="xMidYMid meet">

<g transform="translate(0.000000,80.000000) scale(0.100000,-0.100000)"
fill="#000000" stroke="none">
<path d="M262 695 c-73 -30 -144 -55 -158 -55 -23 0 -24 -3 -24 -65 0 -63 1
-65 25 -65 l25 0 0 -120 0 -120 -25 0 c-22 0 -25 -4 -25 -35 0 -24 -5 -35 -15
-35 -12 0 -15 -13 -15 -55 l0 -55 355 0 355 0 0 55 c0 42 -3 55 -15 55 -10 0
-15 11 -15 35 0 31 -3 35 -25 35 l-25 0 0 120 0 120 25 0 c24 0 25 2 25 65 0
62 -1 65 -24 65 -14 0 -85 25 -160 55 -74 30 -138 55 -143 55 -4 -1 -68 -25
-141 -55z m223 -22 l70 -28 -72 -3 c-40 -2 -107 -2 -150 0 l-78 3 65 27 c36
14 72 27 80 27 8 1 46 -11 85 -26z m205 -98 c0 -13 -38 -15 -285 -15 -247 0
-285 2 -285 15 0 13 38 15 285 15 247 0 285 -2 285 -15z m-500 -185 c0 -73 -4
-120 -10 -120 -6 0 -10 47 -10 120 0 73 4 120 10 120 6 0 10 -47 10 -120z m80
0 c0 -100 -2 -120 -15 -120 -12 0 -15 20 -15 120 0 100 3 120 15 120 13 0 15
-20 15 -120z m70 0 c0 -73 -4 -120 -10 -120 -6 0 -10 47 -10 120 0 73 4 120
10 120 6 0 10 -47 10 -120z m80 0 c0 -100 -2 -120 -15 -120 -12 0 -15 20 -15
120 0 100 3 120 15 120 13 0 15 -20 15 -120z m70 0 c0 -73 -4 -120 -10 -120
-6 0 -10 47 -10 120 0 73 4 120 10 120 6 0 10 -47 10 -120z m80 0 c0 -100 -2
-120 -15 -120 -12 0 -15 20 -15 120 0 100 3 120 15 120 13 0 15 -20 15 -120z
m70 0 c0 -73 -4 -120 -10 -120 -6 0 -10 47 -10 120 0 73 4 120 10 120 6 0 10
-47 10 -120z m50 -180 c0 -6 -102 -10 -285 -10 -183 0 -285 4 -285 10 0 6 102
10 285 10 183 0 285 -4 285 -10z m20 -70 c0 -6 -108 -10 -305 -10 -197 0 -305
4 -305 10 0 6 108 10 305 10 197 0 305 -4 305 -10z"/>
</g>
</svg>
